<svg version="1.1" viewBox="0.0 0.0 768.0 76.8005249343832" fill="none" stroke="none" stroke-linecap="square" stroke-miterlimit="10" xmlns:xlink="http://www.w3.org/1999/xlink" xmlns="http://www.w3.org/2000/svg"><clipPath id="p.0"><path d="m0 0l768.0 0l0 76.80052l-768.0 0l0 -76.80052z" clip-rule="nonzero"/></clipPath><g clip-path="url(#p.0)"><path fill="#000000" fill-opacity="0.0" d="m0 0l768.0 0l0 76.80052l-768.0 0z" fill-rule="evenodd"/><path fill="#000000" fill-opacity="0.0" d="m-4.14065 58.04795l807.937 0l0 28.944878l-807.937 0z" fill-rule="evenodd"/><path fill="#ff0000" d="m55.9531 12.563711l2.1875 0l0 50.453125l-2.1875 0l0 -50.453125zm-48.265625 0l2.203125 0l0 50.453125l-2.203125 0l0 -50.453125zm43.875 0l2.1875 0l0 50.453125l-2.1875 0l0 -50.453125zm-4.390625 0l2.203125 0l0 50.453125l-2.203125 0l0 -50.453125zm-4.390625 0l2.203125 0l0 50.453125l-2.203125 0l0 -19.765625l-19.734373 0l0 19.765625l-2.1875 0l0 -50.453125l2.1875 0l0 19.718752l19.734373 0l0 -19.718752zm-26.312498 0l2.1875 0l0 50.453125l-2.1875 0l0 -50.453125zm-4.390625 0l2.1875 0l0 50.453125l-2.1875 0l0 -50.453125zm30.703123 28.484377l0 -2.1875l-19.734373 0l0 2.1875l19.734373 0zm0 -4.375l0 -2.203125l-19.734373 0l0 2.203125l19.734373 0zm38.018116 0.96875l-1.09375 2.40625l-13.15625 -27.484377l2.1875 0l12.0625 25.078127zm2.203125 -4.8125l-1.125 2.40625l-10.9375 -22.671877l2.1875 0l9.875 20.265627zm2.1875 -4.781252l-1.09375 2.40625l-8.765625 -17.890625l2.1875 0l7.671875 15.484375zm-2.765625 17.968752l15.875 -33.453125l2.1875 0l-15.875 33.453125l0 17.0l-2.1875 0l0 -17.0zm4.390625 0l15.859375 -33.453125l2.203125 0l-15.875 33.453125l0 17.0l-2.1875 0l0 -17.0zm4.375 0l15.875 -33.453125l2.1875 0l-15.859375 33.453125l0 17.0l-2.203125 0l0 -17.0zm-12.0625 -2.3125l14.78125 -31.140627l2.1875 0l-15.875 33.453125l0 17.0l-2.1875 0l0 -17.0l-15.875004 -33.453125l2.2031288 0l14.765625 31.140627zm51.08947 -4.578125l12.734375 0q3.140625 0 5.3125 -2.109375q2.1875 -2.125 2.1875 -5.984377q0 -2.890625 -2.296875 -5.1875q-2.28125 -2.3125 -5.203125 -2.3125l-18.828117 0l0 39.484375l-2.1875 0l0 -41.671875l21.015617 0q3.84375 0 6.765625 2.953125q2.921875 2.953125 2.921875 6.734375q0 4.656252 -2.84375 7.484377q-2.828125 2.8125 -6.84375 2.8125l-12.734375 0l0 -2.203125zm0 4.390625l12.734375 0q3.171875 0 5.859375 -1.53125q2.703125 -1.546875 4.359375 -4.4375q1.671875 -2.890625 1.671875 -6.515627q0 -4.6875 -3.59375 -8.28125q-3.578125 -3.609375 -8.296875 -3.609375l-23.218742 0l0 43.875l-2.1875 0l0 -46.0625l25.406242 0q3.6875 0 6.9375 1.953125q3.265625 1.953125 5.203125 5.21875q1.9375 3.25 1.9375 6.90625q0 4.140627 -1.953125 7.546877q-1.953125 3.390625 -5.171875 5.265625q-3.203125 1.875 -6.953125 1.875l-12.734375 0l0 -2.203125zm0 4.390625l12.734375 0q3.265625 0 6.25 -1.296875q2.984375 -1.296875 5.1875 -3.5q2.21875 -2.203125 3.515625 -5.359375q1.3125 -3.15625 1.3125 -6.718752q0 -4.265625 -2.21875 -8.03125q-2.21875 -3.765625 -5.984375 -6.0q-3.765625 -2.234375 -8.0625 -2.234375l-27.593742 0l0 48.25l-2.203125 0l0 -50.453125l29.796867 0q4.875 0 9.140625 2.546875q4.265625 2.546875 6.796875 6.8125q2.53125 4.265625 2.53125 9.109375q0 4.328127 -1.5 7.968752q-1.484375 3.640625 -4.015625 6.046875q-2.53125 2.40625 -5.890625 3.734375q-3.34375 1.3125 -7.0625 1.3125l-12.734375 0l0 -2.1875zm-1.703125 15.109375l-2.1874924 0l0 -37.28125l16.624992 0q2.171875 0 3.734375 1.578125q1.5625 1.578125 1.5625 3.71875q0 5.906252 -5.296875 5.906252l-12.734375 0l0 -2.1875l12.734375 0q1.46875 0 2.28125 -0.828125q0.828125 -0.828125 0.828125 -2.890627q0 -1.34375 -0.90625 -2.21875q-0.890625 -0.890625 -2.203125 -0.890625l-14.4375 0l0 35.09375zm73.53734 -24.28125l-2.1875 -3.625l0 -22.546877l2.1875 0l0 26.171877zm4.390625 7.1875l-2.1875 -3.6875l0 -29.671877l2.1875 0l0 33.359375zm4.390625 7.28125l-2.203125 -3.71875l0 -36.921875l2.203125 0l0 40.640625zm-31.4375 -16.359375l2.1875 3.625l0 22.546875l-2.1875 0l0 -26.171875zm-4.390625 -7.187502l2.1875 3.687502l0 29.671875l-2.1875 0l0 -33.359375zm-4.390625 -7.28125l2.1875 3.71875l0 36.921875l-2.1875 0l0 -40.640625zm0.765625 -9.8125l2.5625 0l31.0 50.453125l-2.546875 0l-31.015625 -50.453125zm5.171875 0l2.59375 0l30.984375 50.453125l-2.625 0l-30.953125 -50.453125zm5.15625 0l2.5625 0l28.75 46.890625l0 -46.890625l2.1875 0l0 50.453125q0 0 -2.578125 0l-30.921875 -50.453125zm-13.28125 3.5625l0 46.890625l-2.203125 0l0 -50.453125q0 0 2.625 0l30.921875 50.453125l-2.53125 0l-28.8125 -46.890625zm70.33708 13.140625q-3.53125 3.531252 -3.53125 8.531252q0 4.984375 3.53125 8.53125q3.53125 3.53125 8.53125 3.53125q4.9999847 0 8.531235 -3.53125q3.53125 -3.546875 3.53125 -8.53125q0 -5.0 -3.53125 -8.531252q-3.53125 -3.53125 -8.531235 -3.53125q-5.0 0 -8.53125 3.53125zm-4.609375 14.062502q-1.125 -2.640625 -1.125 -5.53125q0 -2.90625 1.125 -5.53125q1.140625 -2.640627 3.046875 -4.562502q1.921875 -1.921875 4.5625 -3.046875q2.640625 -1.125 5.53125 -1.125q2.890625 0 5.5156097 1.125q2.640625 1.125 4.5625 3.046875q1.921875 1.921875 3.046875 4.562502q1.125 2.625 1.125 5.53125q0 2.890625 -1.125 5.53125q-1.125 2.625 -3.046875 4.546875q-1.921875 1.921875 -4.5625 3.046875q-2.6249847 1.125 -5.5156097 1.125q-2.890625 0 -5.53125 -1.125q-2.640625 -1.125 -4.5625 -3.046875q-1.90625 -1.921875 -3.046875 -4.546875zm-1.109375 -13.781252q-2.203125 3.765627 -2.203125 8.250002q0 4.46875 2.203125 8.25q2.21875 3.78125 5.984375 5.984375q3.78125 2.203125 8.265625 2.203125q4.484375 0 8.249985 -2.203125q3.78125 -2.203125 5.984375 -5.984375q2.21875 -3.78125 2.21875 -8.25q0 -4.484375 -2.21875 -8.250002q-2.203125 -3.78125 -5.984375 -5.984375q-3.7656097 -2.21875 -8.249985 -2.21875q-4.484375 0 -8.265625 2.21875q-3.765625 2.203125 -5.984375 5.984375zm-1.90625 17.593752q-2.484375 -4.296875 -2.484375 -9.34375q0 -5.0625 2.484375 -9.359377q2.5 -4.296875 6.796875 -6.796875q4.296875 -2.5 9.359375 -2.5q5.0624847 0 9.343735 2.5q4.296875 2.5 6.796875 6.796875q2.5 4.296877 2.5 9.359377q0 5.046875 -2.5 9.34375q-2.5 4.296875 -6.796875 6.796875q-4.28125 2.5 -9.343735 2.5q-5.0625 0 -9.359375 -2.5q-4.296875 -2.5 -6.796875 -6.796875zm-3.046875 -17.453127q-1.640625 3.875002 -1.640625 8.109377q0 4.234375 1.640625 8.109375q1.65625 3.859375 4.4375 6.65625q2.796875 2.78125 6.65625 4.421875q3.875 1.640625 8.109375 1.640625q4.234375 0 8.093735 -1.640625q3.875 -1.640625 6.65625 -4.421875q2.796875 -2.796875 4.4375 -6.65625q1.65625 -3.875 1.65625 -8.109375q0 -4.234375 -1.65625 -8.109377q-1.640625 -3.875 -4.4375 -6.65625q-2.78125 -2.78125 -6.65625 -4.421875q-3.8593597 -1.65625 -8.093735 -1.65625q-4.234375 0 -8.109375 1.65625q-3.859375 1.640625 -6.65625 4.421875q-2.78125 2.78125 -4.4375 6.65625zm-0.734375 19.656252q-3.09375 -5.3125 -3.09375 -11.546875q0 -6.250002 3.09375 -11.546877q3.09375 -5.3125 8.390625 -8.390625q5.296875 -3.09375 11.546875 -3.09375q6.2499847 0 11.54686 3.09375q5.296875 3.078125 8.390625 8.390625q3.09375 5.296875 3.09375 11.546877q0 6.234375 -3.09375 11.546875q-3.09375 5.296875 -8.390625 8.390625q-5.296875 3.09375 -11.54686 3.09375q-6.25 0 -11.546875 -3.09375q-5.296875 -3.09375 -8.390625 -8.390625zm-3.296875 -21.343752q-1.984375 4.671877 -1.984375 9.796877q0 5.109375 1.984375 9.796875q2.0 4.671875 5.375 8.0625q3.390625 3.375 8.0625 5.375q4.671875 1.984375 9.78125 1.984375q5.1249847 0 9.79686 -1.984375q4.6875 -2.0 8.0625 -5.375q3.390625 -3.390625 5.375 -8.0625q2.0 -4.6875 2.0 -9.796875q0 -5.125 -2.0 -9.796877q-1.984375 -4.671875 -5.375 -8.046875q-3.375 -3.390625 -8.0625 -5.390625q-4.671875 -2.0 -9.79686 -2.0q-5.109375 0 -9.78125 2.0q-4.671875 2.0 -8.0625 5.390625q-3.375 3.375 -5.375 8.046875zm-2.015625 20.437502q-2.171875 -5.078125 -2.171875 -10.640625q0 -5.578125 2.171875 -10.640627q2.1875 -5.078125 5.859375 -8.75q3.671875 -3.671875 8.734375 -5.84375q5.078125 -2.1875 10.65625 -2.1875q5.5781097 0 10.64061 2.1875q5.078125 2.171875 8.75 5.84375q3.671875 3.671875 5.84375 8.75q2.1875 5.062502 2.1875 10.640627q0 5.5625 -2.1875 10.640625q-2.171875 5.078125 -5.84375 8.75q-3.671875 3.671875 -8.75 5.84375q-5.0625 2.171875 -10.64061 2.171875q-5.578125 0 -10.65625 -2.171875q-5.0625 -2.171875 -8.734375 -5.84375q-3.671875 -3.671875 -5.859375 -8.75zm56.231857 -33.671875l0 -2.203125l32.90625 0l0 2.203125l-32.90625 0zm0 4.375l0 -2.1875l32.90625 0l0 2.1875l-32.90625 0zm0 4.390625l0 -2.1875l32.90625 0l0 2.1875l-8.78125 0l0 39.484375l-2.1875 0l0 -39.484375l-2.203125 0l0 39.484375l-2.1875 0l0 -39.484375l-2.1875 0l0 39.484375l-2.203125 0l0 -39.484375l-2.1875 0l0 39.484375l-2.203125 0l0 -39.484375l-8.765625 0zm51.032745 -10.96875l2.1875 0l0 50.453125l-2.1875 0l0 -50.453125zm-4.390625 0l2.1875 0l0 50.453125l-2.1875 0l0 -50.453125zm-4.390625 0l2.1875 0l0 50.453125l-2.1875 0l0 -50.453125zm-4.390625 0l2.203125 0l0 50.453125l-2.203125 0l0 -50.453125zm45.001495 37.296875l3.625 -2.203125l20.40625 0l0 2.203125l-24.03125 0zm-7.1875 4.375l3.6875 -2.1875l27.53125 0l0 2.1875l-31.21875 0zm-7.28125 4.390625l3.71875 -2.1875l34.78125 0l0 2.1875l-38.5 0zm14.21875 -32.890625l-3.625 2.1875l-20.40625 0l0 -2.1875l24.03125 0zm7.1875 -4.390625l-3.671875 2.1875l-27.546875 0l0 -2.1875l31.21875 0zm7.28125 -4.390625l-3.703125 2.1875l-34.796875 0l0 -2.1875l38.5 0zm9.8125 0.765625l0 2.5625l-48.3125 32.46875l0 -2.5625l48.3125 -32.46875zm0 5.171875l0 2.59375l-48.3125 32.4375l0 -2.609375l48.3125 -32.421875zm0 5.15625l0 2.5625l-45.046875 30.218752l45.046875 0l0 2.1875l-48.3125 0q0 0 0 -2.59375l48.3125 -32.375zm-3.25 -13.28125l-45.0625 0l0 -2.203125l48.3125 0q0 0 0 2.625l-48.3125 32.375l0 -2.515625l45.0625 -30.281252zm21.81311 -2.203125l2.1875 0l0 50.453125l-2.1875 0l0 -50.453125zm-4.390625 0l2.1875 0l0 50.453125l-2.1875 0l0 -50.453125zm-4.390625 0l2.1875 0l0 50.453125l-2.1875 0l0 -50.453125zm-4.390625 0l2.203125 0l0 50.453125l-2.203125 0l0 -50.453125zm56.970276 26.171877l-2.1875 -3.625l0 -22.546877l2.1875 0l0 26.171877zm4.390625 7.1875l-2.1875 -3.6875l0 -29.671877l2.1875 0l0 33.359375zm4.390625 7.28125l-2.203125 -3.71875l0 -36.921875l2.203125 0l0 40.640625zm-31.4375 -16.359375l2.1875 3.625l0 22.546875l-2.1875 0l0 -26.171875zm-4.390625 -7.187502l2.1875 3.687502l0 29.671875l-2.1875 0l0 -33.359375zm-4.390625 -7.28125l2.1875 3.71875l0 36.921875l-2.1875 0l0 -40.640625zm0.765625 -9.8125l2.5625 0l31.0 50.453125l-2.546875 0l-31.015625 -50.453125zm5.171875 0l2.59375 0l30.984375 50.453125l-2.625 0l-30.953125 -50.453125zm5.15625 0l2.5625 0l28.75 46.890625l0 -46.890625l2.1875 0l0 50.453125q0 0 -2.578125 0l-30.921875 -50.453125zm-13.28125 3.5625l0 46.890625l-2.203125 0l0 -50.453125q0 0 2.625 0l30.921875 50.453125l-2.53125 0l-28.8125 -46.890625zm92.88397 20.546877l2.1875 0l0 26.34375l-2.1875 0l0 -26.34375zm8.7656555 0l2.203125 0l0 26.34375l-2.203125 0l0 -26.34375zm-4.3750305 0l2.1875305 0l0 26.34375l-2.1875305 0l0 -26.34375zm-6.59375 0l0 26.34375q-5.78125 2.1875 -12.0 2.1875q-5.390625 0 -10.328125 -1.984375q-4.9375 -1.96875 -8.6875 -5.484375q-3.734375 -3.515625 -5.984375 -8.703125q-2.234375 -5.203125 -2.234375 -11.234375q0 -5.578125 2.171875 -10.640627q2.1875 -5.078125 5.859375 -8.75q3.671875 -3.671875 8.734375 -5.84375q5.078125 -2.1875 10.65625 -2.1875q6.9375 0 12.90625 3.234375q5.984375 3.21875 9.7656555 8.765625l-1.828125 1.1875q-3.4844055 -5.078125 -8.9844055 -8.03125q-5.5 -2.96875 -11.859375 -2.96875q-5.125 0 -9.796875 2.0q-4.671875 2.0 -8.0625 5.390625q-3.375 3.375 -5.375 8.046875q-1.984375 4.671877 -1.984375 9.796877q0 5.515625 2.046875 10.296875q2.0625 4.78125 5.484375 8.015625q3.421875 3.21875 7.953125 5.0625q4.546875 1.84375 9.453125 1.84375q5.15625 0 9.90625 -1.609375l0 -2.109375q-4.53125 1.53125 -9.53125 1.53125q-3.625 0 -7.0625 -1.015625q-3.421875 -1.03125 -6.328125 -3.015625q-2.90625 -2.0 -5.09375 -4.75q-2.171875 -2.765625 -3.40625 -6.4375q-1.234375 -3.671875 -1.234375 -7.8125q0 -6.250002 3.09375 -11.546877q3.09375 -5.3125 8.390625 -8.390625q5.296875 -3.09375 11.546875 -3.09375q5.84375 0 10.875 2.734375q5.03125 2.71875 8.1875 7.375l-1.828125 1.1875q-2.859375 -4.203125 -7.421875 -6.65625q-4.546875 -2.453125 -9.8125 -2.453125q-4.234375 0 -8.109375 1.65625q-3.859375 1.640625 -6.65625 4.421875q-2.78125 2.78125 -4.4375 6.65625q-1.640625 3.875002 -1.640625 8.109377q0 3.796875 1.109375 7.140625q1.125 3.328125 3.078125 5.8125q1.96875 2.484375 4.59375 4.265625q2.625 1.78125 5.703125 2.703125q3.09375 0.90625 6.359375 0.90625q5.0625 0 9.625 -1.703125l0 -2.1875q-4.515625 1.734375 -9.40625 1.734375q-3.71875 0 -7.109375 -1.265625q-3.375 -1.265625 -6.015625 -3.578125q-2.625 -2.3125 -4.1875 -5.90625q-1.546875 -3.59375 -1.546875 -7.921875q0 -5.0625 2.484375 -9.359377q2.5 -4.296875 6.796875 -6.796875q4.296875 -2.5 9.359375 -2.5q4.71875 0 8.78125 2.203125q4.078125 2.1875 6.625 5.96875l-1.828125 1.1875q-2.25 -3.296875 -5.828125 -5.21875q-3.578125 -1.9375 -7.75 -1.9375q-4.484375 0 -8.265625 2.21875q-3.765625 2.203125 -5.984375 5.984375q-2.203125 3.765627 -2.203125 8.250002q0 3.109375 0.875 5.796875q0.890625 2.671875 2.4375 4.625q1.5625 1.9375 3.640625 3.3125q2.09375 1.375 4.5 2.0625q2.40625 0.671875 5.0 0.671875q5.140625 0 9.625 -2.03125l0 -2.109375q-4.328125 1.921875 -9.359375 1.921875q-2.890625 0 -5.453125 -0.875q-2.546875 -0.890625 -4.609375 -2.59375q-2.0625 -1.703125 -3.265625 -4.484375q-1.203125 -2.796875 -1.203125 -6.296875q0 -2.90625 1.125 -5.53125q1.140625 -2.640627 3.046875 -4.562502q1.921875 -1.921875 4.5625 -3.046875q2.640625 -1.125 5.53125 -1.125q3.625 0 6.734375 1.703125q3.109375 1.6875 5.046875 4.578125l-1.796875 1.1875q-1.640625 -2.4375 -4.28125 -3.84375q-2.625 -1.421875 -5.703125 -1.421875q-5.0 0 -8.53125 3.53125q-3.53125 3.531252 -3.53125 8.531252q0 3.078125 1.0 5.4375q1.015625 2.359375 2.765625 3.78125q1.75 1.40625 3.890625 2.125q2.15625 0.71875 4.625 0.71875q5.046875 0 9.40625 -2.109375l0 -11.078125l2.1875 0zm88.681854 7.9375l2.203125 -4.140625l0 22.546875l-2.203125 0l0 -18.40625zm4.390625 -8.40625l2.203125 -4.140625l0 30.953125l-2.203125 0l0 -26.8125zm4.390625 -8.281252l2.1875 -4.171875l0 39.265625l-2.1875 0l0 -35.09375zm-14.71875 15.656252l-1.25 -2.28125l15.109375 -28.734377l2.46875 0l-16.328125 31.015627zm-2.53125 -4.78125l-1.28125 -2.3125l12.6875 -23.921877l2.484375 0l-13.890625 26.234377zm-14.671875 1.921875l2.1875 4.140625l0 18.15625l-2.1875 0l0 -22.296875zm-4.390625 -8.34375l2.1875 4.140625l0 26.5l-2.1875 0l0 -30.640625zm-4.390625 -8.359377l2.1875 4.171875l0 34.828125l-2.1875 0l0 -39.0zm17.734375 25.843752l-2.46875 0l-17.453125 -33.125l0 46.28125l-2.203125 0l0 -50.453125l2.46875 0l19.65625 37.296875zm4.96875 0l-2.5 0l-19.625 -37.296875l2.5 0l19.625 37.296875zm22.390625 -33.125l-17.46875 33.125l-2.484375 0l-19.59375 -37.296875l2.46875 0l18.390625 34.984375l18.375 -34.984375l2.5 0l0 50.453125l-2.1875 0l0 -46.28125zm29.75232 31.468752l0.890625 -2.1875l7.5 0l0.875 2.1875l-9.265625 0zm-1.703125 4.390625l0.859375 -2.1875l10.9375 0l0.9375 2.1875l-12.734375 0zm-1.703125 4.390625l0.859375 -2.1875l14.375 0l0.90625 2.1875l-16.140625 0zm-17.828125 6.03125l-2.375 0l19.953125 -50.453125l2.375 0l19.9375 50.453125l-2.359375 0l-18.765625 -47.5l-18.765625 47.5zm19.046875 -42.28125l1.25 2.796875l-15.59375 39.484375l-2.34375 0l16.6875 -42.28125zm2.4375 5.78125l1.15625 3.015625l-13.1875 33.484375l-2.375 0l14.40625 -36.5zm2.3125 6.031252l1.15625 3.078125l-10.8125 27.390625l-2.34375 0l12.0 -30.46875zm30.25 30.46875l-2.375 0l-19.921875 -50.453125l2.34375 0l19.953125 50.453125zm-24.671875 -50.453125l19.953125 50.453125l-2.34375 0l-19.953125 -50.453125l2.34375 0zm-4.71875 0l19.953125 50.453125l-2.375 0l-19.921875 -50.453125l2.34375 0zm32.258423 2.203125l0 -2.203125l32.90625 0l0 2.203125l-32.90625 0zm0 4.375l0 -2.1875l32.90625 0l0 2.1875l-32.90625 0zm0 4.390625l0 -2.1875l32.90625 0l0 2.1875l-8.78125 0l0 39.484375l-2.1875 0l0 -39.484375l-2.203125 0l0 39.484375l-2.1875 0l0 -39.484375l-2.1875 0l0 39.484375l-2.203125 0l0 -39.484375l-2.1875 0l0 39.484375l-2.203125 0l0 -39.484375l-8.765625 0zm86.126465 -10.96875l2.1875 0l0 50.453125l-2.1875 0l0 -50.453125zm-48.265625 0l2.203125 0l0 50.453125l-2.203125 0l0 -50.453125zm43.875 0l2.1875 0l0 50.453125l-2.1875 0l0 -50.453125zm-4.390625 0l2.203125 0l0 50.453125l-2.203125 0l0 -50.453125zm-4.390625 0l2.203125 0l0 50.453125l-2.203125 0l0 -19.765625l-19.734375 0l0 19.765625l-2.1875 0l0 -50.453125l2.1875 0l0 19.718752l19.734375 0l0 -19.718752zm-26.3125 0l2.1875 0l0 50.453125l-2.1875 0l0 -50.453125zm-4.390625 0l2.1875 0l0 50.453125l-2.1875 0l0 -50.453125zm30.703125 28.484377l0 -2.1875l-19.734375 0l0 2.1875l19.734375 0zm0 -4.375l0 -2.203125l-19.734375 0l0 2.203125l19.734375 0z" fill-rule="nonzero"/></g></svg>